# xmcd
#
# Track frame offsets:
#	187
#	29412
#	48302
#	73072
#	91442
#	110030
#	134827
#	155247
#	174607
#	196347
# Disc length: 2906 seconds
# Revision: 2
# Processed by: cddbd v1.5.1PL0 Copyright (c) Steve Scherf et al.
#
# Submitted via: libkcddb 0.10
#
DISCID=990b580a
DTITLE=???? - ???
DYEAR=1992
DGENRE=Pop
TTITLE0=???
TTITLE1=????
TTITLE2=??????
TTITLE3=?????????
TTITLE4=????
TTITLE5=??????
TTITLE6=??????
TTITLE7=????
TTITLE8=???????????
TTITLE9=?????
EXTD=
EXTT0=
EXTT1=
EXTT2=
EXTT3=
EXTT4=
EXTT5=
EXTT6=
EXTT7=
EXTT8=
EXTT9=
PLAYORDER=
